<svg width="123" height="123" viewBox="0 0 123 123" fill="none" xmlns="http://www.w3.org/2000/svg">
<path d="M61.5 0C27.5344 0 0 27.5344 0 61.5C0 95.4656 27.5344 123 61.5 123C95.4656 123 123 95.4656 123 61.5C122.962 27.5505 95.4498 0.038354 61.5 0Z" fill="white"/>
<path d="M72.7305 26.2043C67.9327 21.6196 60.3777 21.6196 55.58 26.2043C50.8439 30.9373 50.8416 38.6137 55.5747 43.3495C55.5765 43.3513 55.5782 43.353 55.58 43.3548L60.393 48.1678H29.413C22.0292 48.1678 16.0435 54.1535 16.0435 61.5376C16.0435 68.9213 22.0292 74.9071 29.413 74.9071H60.393L55.58 79.7201C51.1876 84.7776 51.7268 92.4381 56.7842 96.8308C61.3614 100.806 68.1709 100.791 72.7305 96.7959L102.374 67.1528C105.505 64.0203 105.505 58.9425 102.374 55.81L72.7305 26.2043Z" fill="#1790FF"/>
</svg>
