<svg width="71" height="72" viewBox="0 0 71 72" fill="none" xmlns="http://www.w3.org/2000/svg">
<path d="M65.107 30.1292H40.2867C37.4663 30.1292 35.1769 32.4186 35.1769 35.2395V65.8994C35.1769 68.7198 37.4663 71.0093 40.2867 71.0093H65.107C67.9274 71.0093 70.2168 68.7198 70.2168 65.8994V35.2395C70.2168 32.4186 67.9274 30.1292 65.107 30.1292ZM58.9017 59.3295H45.7617C44.5528 59.3295 43.5717 58.3483 43.5717 57.1395C43.5717 55.9306 44.5528 54.9495 45.7617 54.9495H58.9017C60.1105 54.9495 61.0917 55.9306 61.0917 57.1395C61.0917 58.3483 60.1105 59.3295 58.9017 59.3295ZM58.9017 50.5695H45.7617C44.5528 50.5695 43.5717 49.5884 43.5717 48.3795C43.5717 47.1706 44.5528 46.1895 45.7617 46.1895H58.9017C60.1105 46.1895 61.0917 47.1706 61.0917 48.3795C61.0917 49.5884 60.1105 50.5695 58.9017 50.5695Z" fill="white"/>
<path d="M41.7469 9.68943H38.0967V8.95961C38.0967 7.75072 37.1156 6.76961 35.9067 6.76961H32.6832C31.7256 3.40281 28.6272 0.929443 24.9567 0.929443C21.2862 0.929443 18.1884 3.40281 17.2308 6.76961H14.0068C12.7979 6.76961 11.8168 7.75072 11.8168 8.95961V9.68943H8.16713C3.73741 9.68943 0.136963 13.2899 0.136963 17.7196V54.2192C0.136963 58.6489 3.73741 62.2493 8.16713 62.2493H30.7969V35.2396C30.7969 30.0068 35.0545 25.7492 40.2867 25.7492H49.777V17.7196C49.777 13.2899 46.1766 9.68943 41.7469 9.68943ZM16.1968 11.1496H19.1171C20.326 11.1496 21.3071 10.1685 21.3071 8.95961C21.3071 6.94766 22.9448 5.30944 24.9567 5.30944C26.9687 5.30944 28.6069 6.94766 28.6069 8.95961C28.6069 10.1685 29.588 11.1496 30.7969 11.1496H33.7167V14.7992C33.7167 15.2024 33.39 15.5296 32.9869 15.5296H16.9271C16.524 15.5296 16.1968 15.2024 16.1968 14.7992V11.1496Z" fill="white"/>
</svg>
