<svg width="71" height="67" viewBox="0 0 71 67" fill="none" xmlns="http://www.w3.org/2000/svg">
<path d="M4.79071 35.5532V61.8332C4.79071 64.2509 6.75733 66.2132 9.1707 66.2132H31.0707V35.5532H4.79071Z" fill="white"/>
<path d="M66.1106 18.0331H52.2523C53.2466 17.3542 54.1007 16.6796 54.6964 16.0752C58.231 12.523 58.231 6.74145 54.6964 3.18927C51.2625 -0.27092 45.2794 -0.26216 41.8499 3.18927C39.949 5.09457 34.912 12.8515 35.6084 18.0331H35.293C35.9851 12.8515 30.9481 5.09457 29.0515 3.18927C25.6176 -0.26216 19.6346 -0.26216 16.205 3.18927C12.6747 6.74145 12.6747 12.523 16.2006 16.0752C16.8007 16.6796 17.6548 17.3542 18.6491 18.0331H4.79076C2.37738 18.0331 0.410767 19.9997 0.410767 22.4131V28.983C0.410767 30.1919 1.39188 31.173 2.60076 31.173H31.0707V22.4131H39.8307V31.173H68.3006C69.5095 31.173 70.4906 30.1919 70.4906 28.983V22.4131C70.4906 19.9997 68.5284 18.0331 66.1106 18.0331ZM30.8123 17.8885C30.8123 17.8885 30.6283 18.0331 30.002 18.0331C26.9754 18.0331 21.1982 14.8882 19.3104 12.9873C17.4752 11.139 17.4752 8.12552 19.3104 6.27717C20.1996 5.38365 21.3778 4.89309 22.6305 4.89309C23.8788 4.89309 25.057 5.38365 25.9461 6.27717C28.8982 9.2468 31.8328 16.8329 30.8123 17.8885ZM40.895 18.0331C40.2731 18.0331 40.0891 17.8929 40.0891 17.8885C39.0686 16.8329 42.0032 9.2468 44.9553 6.27717C46.7204 4.49451 49.8083 4.48575 51.591 6.27717C53.4306 8.12552 53.4306 11.139 51.591 12.9873C49.7032 14.8882 43.926 18.0331 40.895 18.0331Z" fill="white"/>
<path d="M39.8307 35.5532V66.2132H61.7306C64.1484 66.2132 66.1106 64.2509 66.1106 61.8332V35.5532H39.8307Z" fill="white"/>
</svg>
