<svg width="59" height="60" viewBox="0 0 59 60" fill="none" xmlns="http://www.w3.org/2000/svg">
<path d="M41.7912 4.99955C45.0484 5.00945 48.1694 6.32968 50.4726 8.67191C52.7758 11.0141 54.074 14.188 54.0838 17.5004V42.4995C54.074 45.812 52.7758 48.9859 50.4726 51.3281C48.1694 53.6703 45.0484 54.9906 41.7912 55.0004H17.2088C13.9516 54.9906 10.8306 53.6703 8.52738 51.3281C6.22418 48.9859 4.92596 45.812 4.91623 42.4995V17.5004C4.92596 14.188 6.22418 11.0141 8.52738 8.67191C10.8306 6.32968 13.9516 5.00945 17.2088 4.99955H41.7912ZM41.7912 0H17.2088C7.74375 0 0 7.875 0 17.5004V42.4995C0 52.125 7.74375 60 17.2088 60H41.7912C51.2562 60 59 52.125 59 42.4995V17.5004C59 7.875 51.2562 0 41.7912 0Z" fill="white"/>
<path d="M45.1915 17.2341C44.4467 17.2341 43.7186 17.0095 43.0992 16.5887C42.4799 16.1679 41.9972 15.5697 41.7122 14.8699C41.4271 14.1701 41.3526 13.4001 41.4979 12.6571C41.6432 11.9142 42.0019 11.2318 42.5286 10.6962C43.0552 10.1606 43.7263 9.79584 44.4568 9.64806C45.1873 9.50029 45.9446 9.57613 46.6327 9.866C47.3209 10.1559 47.909 10.6468 48.3228 11.2766C48.7366 11.9064 48.9575 12.6468 48.9575 13.4043C48.9586 13.9076 48.8619 14.4061 48.673 14.8712C48.4841 15.3363 48.2068 15.759 47.8569 16.1148C47.5069 16.4707 47.0914 16.7527 46.634 16.9448C46.1766 17.1369 45.6864 17.2352 45.1915 17.2341ZM28.8726 19.7865C30.859 19.7865 32.8007 20.3855 34.4523 21.5077C36.1039 22.63 37.3911 24.2251 38.1513 26.0913C38.9114 27.9576 39.1103 30.0111 38.7228 31.9923C38.3352 33.9735 37.3787 35.7934 35.9742 37.2217C34.5696 38.6501 32.7801 39.6228 30.8319 40.0169C28.8838 40.411 26.8644 40.2087 25.0293 39.4357C23.1941 38.6627 21.6256 37.3536 20.5221 35.674C19.4185 33.9945 18.8295 32.0198 18.8295 29.9998C18.8323 27.2919 19.8914 24.6958 21.7742 22.7811C23.657 20.8663 26.2099 19.7894 28.8726 19.7865ZM28.8726 14.6805C25.8932 14.6805 22.9808 15.5789 20.5035 17.2622C18.0262 18.9455 16.0954 21.3381 14.9553 24.1373C13.8151 26.9366 13.5168 30.0168 14.0981 32.9885C14.6793 35.9601 16.114 38.6898 18.2207 40.8322C20.3275 42.9747 23.0116 44.4337 25.9338 45.0248C28.8559 45.6159 31.8848 45.3125 34.6374 44.153C37.39 42.9935 39.7426 41.03 41.3979 38.5108C43.0531 35.9915 43.9366 33.0297 43.9366 29.9998C43.9366 25.9369 42.3495 22.0403 39.5245 19.1674C36.6994 16.2945 32.8678 14.6805 28.8726 14.6805Z" fill="white"/>
</svg>
