<svg width="71" height="68" viewBox="0 0 71 68" fill="none" xmlns="http://www.w3.org/2000/svg">
<path d="M11.8392 43.6345C13.7781 45.3689 15.9768 46.7443 18.3333 47.7779L30.7257 39.9962C33.2895 38.3785 36.7234 38.761 38.8696 40.9189L43.0364 45.0857C49.2823 40.4809 53.198 33.1137 53.198 25.1188C53.198 11.4328 42.0641 0.298828 28.3781 0.298828C14.692 0.298828 3.55811 11.4328 3.55811 25.1188C3.55811 32.1822 6.57446 38.9304 11.8392 43.6345ZM29.4877 27.3088H27.2685C23.855 27.3088 21.0781 24.5319 21.0781 21.1184C21.0781 18.0495 23.2914 15.5237 26.1881 15.0098V12.7088C26.1881 11.4999 27.1692 10.5188 28.3781 10.5188C29.5869 10.5188 30.5681 11.4999 30.5681 12.7088V14.8988H33.4881C34.6969 14.8988 35.678 15.8799 35.678 17.0888C35.678 18.2977 34.6969 19.2788 33.4881 19.2788H27.2685C26.2698 19.2788 25.4581 20.0905 25.4581 21.0892C25.4581 22.117 26.2698 22.9288 27.2685 22.9288H29.4877C32.9011 22.9288 35.678 25.7057 35.678 29.1192C35.678 32.1881 33.4647 34.7139 30.5681 35.2278V37.5258C30.5681 38.7347 29.5869 39.7158 28.3781 39.7158C27.1692 39.7158 26.1881 38.7347 26.1881 37.5258V35.3388H23.2681C22.0592 35.3388 21.0781 34.3576 21.0781 33.1488C21.0781 31.9399 22.0592 30.9588 23.2681 30.9588H29.4877C30.4863 30.9588 31.2981 30.147 31.2981 29.1484C31.2981 28.1205 30.4863 27.3088 29.4877 27.3088Z" fill="white"/>
<path d="M67.7979 32.4185H56.1179C54.9382 32.4185 53.8695 33.1309 53.4198 34.2201C52.9672 35.3122 53.2183 36.5678 54.0534 37.4029L57.829 41.1784L45.8979 53.1095L36.2823 43.494C35.3275 42.5333 33.8266 42.3669 32.682 43.0764L2.02205 62.0564C0.649656 62.9061 0.229176 64.7048 1.07597 66.0743C1.62785 66.9678 2.58269 67.4584 3.56089 67.4584C4.08649 67.4584 4.61501 67.3182 5.09389 67.0204L33.7858 49.2581L43.8305 59.3028C44.9723 60.4446 46.8177 60.4446 47.9594 59.3028L61.9579 45.3073L65.7334 49.0829C66.2911 49.6406 67.0387 49.9384 67.7979 49.9384C68.1745 49.9384 68.5541 49.8654 68.9162 49.7165C70.0083 49.2639 70.7178 48.1981 70.7178 47.0184V35.3385C70.7178 33.7266 69.4126 32.4185 67.7979 32.4185Z" fill="white"/>
</svg>
