<svg width="71" height="71" viewBox="0 0 71 71" fill="none" xmlns="http://www.w3.org/2000/svg">
<g clip-path="url(#clip0)">
<path d="M63.6447 55.5218C62.7066 55.5218 61.8154 55.7146 60.9884 56.039L52.2422 47.2958C54.8021 43.8797 56.3392 39.6542 56.3392 35.0664C56.3392 30.4785 54.8021 26.253 52.2422 22.837L60.9884 14.0938C61.8154 14.4181 62.7066 14.611 63.6447 14.611C67.6744 14.611 70.9502 11.3323 70.9502 7.3055C70.9502 3.27871 67.6744 0 63.6447 0C59.615 0 56.3392 3.27871 56.3392 7.3055C56.3392 8.24352 56.532 9.13479 56.8564 9.96178L48.1103 18.7079C44.6942 16.1481 40.4716 14.611 35.8838 14.611C31.2959 14.611 27.0733 16.1481 23.6573 18.705L14.9111 9.96178C15.2355 9.13479 15.4284 8.24352 15.4284 7.3055C15.4284 3.27871 12.1526 0 8.12288 0C4.09317 0 0.817383 3.27871 0.817383 7.3055C0.817383 11.3323 4.09317 14.611 8.12288 14.611C9.06091 14.611 9.95218 14.4181 10.7792 14.0938L19.5253 22.8399C16.9655 26.253 15.4284 30.4785 15.4284 35.0664C15.4284 39.6542 16.9655 43.8797 19.5253 47.2958L10.7792 56.0419C9.95218 55.7146 9.06091 55.5218 8.12288 55.5218C4.09317 55.5218 0.817383 58.8005 0.817383 62.8273C0.817383 66.8541 4.09317 70.1328 8.12288 70.1328C12.1526 70.1328 15.4284 66.8541 15.4284 62.8273C15.4284 61.8893 15.2355 60.998 14.9111 60.171L23.6573 51.4249C27.0733 53.9847 31.2959 55.5218 35.8838 55.5218C40.4716 55.5218 44.6942 53.9847 48.1103 51.4278L56.8564 60.1739C56.532 60.998 56.3392 61.8893 56.3392 62.8273C56.3392 66.8541 59.615 70.1328 63.6447 70.1328C67.6744 70.1328 70.9502 66.8541 70.9502 62.8273C70.9502 58.8005 67.6744 55.5218 63.6447 55.5218ZM35.8838 20.4554C39.1128 20.4554 41.7282 23.0708 41.7282 26.2998C41.7282 29.5288 39.1128 32.1442 35.8838 32.1442C32.6547 32.1442 30.0394 29.5288 30.0394 26.2998C30.0394 23.0708 32.6547 20.4554 35.8838 20.4554ZM26.3866 46.7552C25.1768 46.7552 24.195 45.7733 24.195 44.5635V43.1024C24.195 38.6695 27.798 35.0664 32.231 35.0664H39.5365C43.9695 35.0664 47.5726 38.6695 47.5726 43.1024V44.5635C47.5726 45.7733 46.5907 46.7552 45.3809 46.7552H26.3866Z" fill="white"/>
</g>
<defs>
<clipPath id="clip0">
<rect width="70.1328" height="70.1328" fill="white" transform="translate(0.817383)"/>
</clipPath>
</defs>
</svg>
