<svg width="63" height="51" viewBox="0 0 63 51" fill="none" xmlns="http://www.w3.org/2000/svg">
<path d="M63 6.04297C60.6368 7.08203 58.1364 7.76658 55.5778 8.075C58.2667 6.48176 60.2888 3.95061 61.2649 0.956269C58.7227 2.46049 55.946 3.51592 53.0539 4.07735C51.836 2.7858 50.3713 1.75833 48.7488 1.0574C47.1263 0.356471 45.3799 -0.00327691 43.6157 2.2491e-05C36.4731 2.2491e-05 30.6928 5.76407 30.6928 12.8695C30.6877 13.8579 30.7997 14.8433 31.0262 15.8047C25.9044 15.5617 20.8891 14.2396 16.3012 11.9229C11.7133 9.60622 7.65382 6.346 4.38244 2.3508C3.23475 4.30861 2.6278 6.5424 2.625 8.81874C2.625 13.2812 4.92581 17.2257 8.4 19.5367C6.34164 19.4872 4.32546 18.936 2.52262 17.9297V18.089C2.52262 24.3312 6.98513 29.5242 12.8914 30.7062C11.7807 31.0058 10.6362 31.1576 9.48675 31.1577C8.67113 31.1592 7.85737 31.0791 7.05731 30.9187C8.69925 36.0319 13.4781 39.7507 19.1389 39.8569C14.5391 43.4441 8.89169 45.3829 3.08437 45.3686C2.05356 45.3671 1.0237 45.305 0 45.1827C5.9078 49 12.7751 51.0192 19.7846 50.9999C43.5881 50.9999 56.5924 31.3835 56.5924 14.3703C56.5924 13.8125 56.5779 13.2547 56.5517 12.7101C59.0757 10.8933 61.2594 8.63561 63 6.04297Z" fill="white"/>
</svg>
