<svg width="66" height="58" viewBox="0 0 66 58" fill="none" xmlns="http://www.w3.org/2000/svg">
<path d="M53.1712 32.9209C50.929 32.9209 49.1093 34.7406 49.1093 36.9828C49.1093 39.225 50.929 41.0447 53.1712 41.0447H65.3569V32.9209H53.1712Z" fill="white"/>
<path d="M53.1711 28.8592H61.2949V18.7045C61.2949 17.5671 60.4013 16.6735 59.2639 16.6735H55.202V10.5806C55.202 9.44328 54.3084 8.54966 53.1711 8.54966H48.3374L44.8441 1.56316C44.3161 0.547684 43.0975 0.141493 42.1227 0.628923L37.4108 2.98483L36.7203 1.56316C36.1923 0.547684 34.9737 0.141493 33.9988 0.628923L18.1573 8.54966H6.45903C3.08763 8.54966 0.36615 11.2711 0.36615 14.6425V51.1998C0.36615 54.5712 3.08763 57.2927 6.45903 57.2927H59.2639C60.4013 57.2927 61.2949 56.399 61.2949 55.2617V45.1069H53.1711C48.703 45.1069 45.0472 41.4512 45.0472 36.9831C45.0472 32.515 48.703 28.8592 53.1711 28.8592ZM51.1401 12.6116V14.1551L50.3683 12.6116H51.1401ZM4.54992 15.3331C4.46869 15.13 4.42807 14.8862 4.42807 14.6425C4.42807 13.5052 5.32169 12.6116 6.45903 12.6116H10.0335L4.54992 15.3331ZM11.0084 16.6735L33.9988 5.17827L39.7261 16.6735H11.0084ZM44.2755 16.6735L39.2387 6.59994L42.1227 5.17827L47.85 16.6735H44.2755Z" fill="white"/>
</svg>
