<svg width="60" height="61" viewBox="0 0 60 61" fill="none" xmlns="http://www.w3.org/2000/svg">
<path fill-rule="evenodd" clip-rule="evenodd" d="M51.2584 8.86418C48.4848 6.04303 45.1898 3.80747 41.563 2.28621C37.9362 0.76494 34.0492 -0.0119909 30.1258 0.000139891C13.6607 0.000139891 0.257142 13.559 0.250446 30.2277C0.243162 35.5354 1.61932 40.7503 4.23883 45.3416L0 61L15.837 56.7967C20.2208 59.2112 25.1281 60.4748 30.1138 60.4731H30.1258C46.5897 60.4731 59.9919 46.9128 59.9999 30.2455C60.0099 26.2703 59.2422 22.3329 57.7415 18.6622C56.2407 14.9915 54.037 11.6609 51.2584 8.86418ZM43.745 36.5551C42.999 36.1766 39.3254 34.3493 38.645 34.0974C37.9647 33.8455 37.4624 33.7189 36.9656 34.476C36.4687 35.233 35.037 36.9268 34.6017 37.4374C34.1665 37.948 33.7312 38.0039 32.9852 37.6253C32.2392 37.2468 29.8325 36.4503 26.9812 33.8768C24.762 31.8739 23.2647 29.4013 22.8294 28.6456C22.3942 27.8899 22.7826 27.48 23.1562 27.1042C23.4924 26.7652 23.9022 26.2219 24.2759 25.7808C24.6495 25.3396 24.7741 25.0237 25.0218 24.5199C25.2696 24.0161 25.1464 23.575 24.9602 23.1978C24.7741 22.8206 23.2808 19.1021 22.6593 17.5893C22.0526 16.1161 21.4379 16.3162 20.9799 16.2931C20.5446 16.2713 20.0424 16.2659 19.5482 16.2659C19.1704 16.2759 18.7987 16.3649 18.4562 16.5275C18.1138 16.6901 17.8081 16.9227 17.558 17.2108C16.8736 17.9679 14.9451 19.7979 14.9451 23.5123C14.9451 27.2268 17.6236 30.8214 17.9933 31.3252C18.3629 31.829 23.2567 39.4581 30.7446 42.73C32.135 43.3354 33.5557 43.8662 35.0008 44.3204C36.7888 44.895 38.416 44.8146 39.7017 44.6199C41.1361 44.4034 44.1214 42.7926 44.7414 41.028C45.3615 39.2634 45.3629 37.752 45.1767 37.4374C44.9906 37.1229 44.4923 36.9323 43.745 36.5551Z" fill="white"/>
</svg>
